<svg viewBox="0 0 256 256" xmlns="http://www.w3.org/2000/svg"><g fill="none"><path fill="#0C8" d="M0 0H256V256H0z"/><g transform="translate(40 87)" fill="#FFF"><path d="M9.92825112 71L9.92825112 42.4516971 39.3452915 42.4516971 39.3452915 34.2950392 9.92825112 34.2950392 9.92825112 8.34203655 41 8.34203655 41 0 0 0 0 71z"/><path d="M89.09 64.586c8.64 0 15.258-2.953 19.854-9.228a46.28 46.28 0 0 0 6.985-27.13 43.954 43.954 0 0 1-27.023 0C84.494 22.322 77.876 19 69.42 19c-8.824 0-15.442 3.322-20.221 9.228 8.824-2.584 18.383-2.584 27.023 0 0 12.18 2.39 21.224 6.985 27.499 4.228 6.275 11.03 9.228 19.486 9.228l-13.603-.37zm0-7.752c-4.964 0-9.192-2.584-11.765-7.382 21.45 5.361 35.546 25.943 32.856 47.97C107.49 119.447 88.859 136 66.755 136c-22.104 0-40.737-16.552-43.427-38.579-2.69-22.026 11.407-42.608 32.856-47.97 0-18.64 5.515-27.867 16.361-27.867 10.662 0 15.993 9.228 15.993 27.683 0 9.228-1.286 16.61-3.676 21.409-6.123-1.833-9.98-7.898-9.057-14.246.923-6.347 6.344-11.053 12.733-11.053 6.39 0 11.811 4.706 12.734 11.053.922 6.348-2.934 12.413-9.057 14.246L89.09 56.834zM123 37.878c11.628 0 20.117-6.316 25.285-19.318l-8.305-3.344c-1.846 5.016-4.43 8.73-7.383 11.145 1.956-6.27 7.815-10.468 14.343-10.273 6.527.194 12.13 4.732 13.714 11.108 1.584 6.376-1.238 13.035-6.906 16.298a14.51 14.51 0 0 1-17.46-2.273c0-9.473 1.293-16.717 4.246-21.175a14.738 14.738 0 0 1 13.288-6.873c3.691 0 6.644 1.3 9.228 3.53a20.438 20.438 0 0 1 6.276 9.287L178 22.646C173.57 10.944 165.45 5 153.638 5c-18.457 0-27.87 12.074-27.87 36.407 0 11.888 2.4 20.99 7.383 27.305C137.95 75.028 145.148 78 154.191 78L123 37.878z"/></g></g></svg>