<svg width="360" height="360" xmlns="http://www.w3.org/2000/svg"><g fill="none" fill-rule="evenodd"><path fill="#0C8" d="M0 0H360V360H0z"/><path d="M59.392 92.673V77.278h19.073v-4.3H59.492V58.984h19.772v-4.499H54v38.29h5.392v-.1zm38.745.6c2.297 0 4.194-.5 5.792-1.4 1.498-.8 2.896-2.299 3.994-4.498H112.916c-.2-.8-.2-3-.2-6.598V61.982h-5.092v17.795c0 2.999-.8 5.398-2.197 6.998a7.196 7.196 0 0 1-5.915-7.716 7.193 7.193 0 0 1 7.163-6.57 7.193 7.193 0 0 1 7.162 6.57 7.196 7.196 0 0 1-5.914 7.716c-2.396 0-3.994-.6-4.993-1.7-.998-1.1-9.486-.7-9.486-3.599V61.982H88.45v20.394c0 3.899.699 6.698 2.197 8.298 1.597 1.7 3.994 2.599 7.39 2.599h.099zm39.244-.3v-4.999c-2.995.7-5.891 1-8.388 1-1.897 0-3.195-.3-3.994-1-.799-.8-1.198-1.899-1.198-3.399V65.981h12.282v-3.999h-12.282v-7.998h-3.396l-1.597 7.998h4.593v3.999h4.693v18.994c0 2.9.8 4.899 2.297 6.199 1.498 1.3 3.795 1.999 6.89 1.999l.1-.2zm30.357.2c2.297 0 4.194-.5 5.792-1.4 1.498-.8 2.896-2.299 3.994-4.498h4.893c-.1-.8-.2-2.7-.2-5.799V61.982h-4.892v17.795c0 2.999-.7 5.398-2.097 6.998a7.196 7.196 0 0 1-5.915-7.716 7.193 7.193 0 0 1 7.163-6.57 7.193 7.193 0 0 1 7.162 6.57 7.196 7.196 0 0 1-5.914 7.716c-2.397 0-3.994-.6-4.993-1.7-.998-1.1-1.398-3.199-1.398-6.098V61.982h-4.993v20.394c0 3.899.7 6.698 2.297 8.298 1.498 1.7 3.994 2.599 7.29 2.599l-8.189-.1zm33.253-.6V78.277c0-3.599.999-6.498 2.796-8.797 1.897 0 3.894.2 5.991.5v-7.998c-1.997-.3-3.894-.5-5.791-.5-1.798 0-3.296.3-4.594.8a8.678 8.678 0 0 1 2.197 0c-.998 1-1.897 2.6-2.796 4.699h-.1c-.2-2.1-.599-4.5-1.398-7.098h-4.793v19.894h5.093l3.395 12.796zm38.945.6c3.095 0 5.791-.7 7.988-2 2.197-1.2 3.695-2.999 4.594-5.298l-4.494-1.3a6.186 6.186 0 0 1 7.905-1.418 6.202 6.202 0 0 1 2.653 7.589 6.19 6.19 0 0 1-7.063 3.827c-2.696 0-4.793-1-6.29-2.9-1.499-1.999-2.298-4.598-2.298-7.997h10.286v-.8c0-5.399-1.099-9.497-3.395-12.197-2.297-2.699-5.692-3.998-10.086-3.998s-7.789 1.3-10.186 3.998a17.257 17.257 0 0 1 11.584 0c0 5.199 1.198 9.198 3.595 11.997 2.396 2.8 5.792 4.199 10.285 4.199l-15.078 6.298zm-8.388-18.795c0-2.899.898-5.198 2.296-6.798 4.993 0 7.69 3.1 8.189 9.298h-16.477l5.992-2.5zM65.783 158.254c4.693 0 8.288-1.7 10.785-5.098 2.496-3.5 3.794-8.398 3.794-14.696a23.94 23.94 0 0 1-14.679 0c-2.496-3.2-5.991-4.899-10.685-4.899-4.793 0-8.388 1.7-10.884 4.999a24.24 24.24 0 0 1 14.579 0c0 6.498 1.298 11.396 3.795 14.795 2.396 3.4 5.991 4.999 10.684 4.999l-7.39-.1zm0-4.299c-2.796 0-4.993-1.4-6.49-3.999 11.65 2.905 19.308 14.053 17.847 25.984-1.461 11.932-11.583 20.898-23.59 20.898s-22.128-8.966-23.59-20.898c-1.46-11.931 6.197-23.08 17.848-25.984 0-10.097 2.996-15.095 8.888-15.095 5.792 0 8.787 4.998 8.787 14.995 0 5.099-.699 8.998-2.097 11.597a6.998 6.998 0 0 1-4.92-7.716 6.993 6.993 0 0 1 6.917-5.988c3.471 0 6.416 2.55 6.917 5.988a6.998 6.998 0 0 1-4.92 7.716l-1.597-7.498zm33.852 3.8v-26.793h13.88v-3.999h-13.88v-.3c0-1.7.2-3.099.699-4.099.5-1 1.198-1.7 2.197-2.099.998-.5 2.496-.7 4.394-.7v-4.099h-.6c-4.194 0-7.19.8-8.987 2.4-1.897 1.7-2.796 4.398-2.796 8.297v.7h-7.39v3.999h7.29v26.692h5.193zm-32.554 65.58c6.291 0 10.885-3.499 13.68-10.497l-4.493-1.8c-.999 2.7-2.397 4.7-3.994 5.999a7.89 7.89 0 0 1 7.787-5.451 7.89 7.89 0 0 1 7.374 5.999 7.901 7.901 0 0 1-3.737 8.746 7.882 7.882 0 0 1-9.427-1.196c0-5.199.699-8.998 2.297-11.497 1.497-2.4 3.994-3.699 7.19-3.699 1.997 0 3.594.7 5.092 1.9 1.498 1.2 2.596 2.999 3.295 4.998l4.694-1.8c-2.397-6.298-6.79-9.497-13.181-9.497-9.986 0-15.079 6.498-15.079 19.595 0 6.398 1.298 11.296 3.994 14.695 2.597 3.4 6.491 5.099 11.384 5.099l-16.876-21.594zm33.353 0c4.493 0 7.988-1.3 10.285-3.999 2.397-2.799 3.495-6.698 3.495-11.896 0-5.299-.998-9.298-3.295-11.997-2.297-2.599-5.692-3.899-10.286-3.899a12.967 12.967 0 0 1 3.995 0c-2.397 2.7-3.595 6.598-3.595 11.997 0 4.998 1.198 8.997 3.495 11.696 2.397 2.8 5.692 4.1 10.086 4.1l-14.18 3.998zm0-3.699c-2.796 0-4.793-1-6.191-3.099-1.299-2.1-1.998-5.098-1.998-8.997 0-4 .7-7.098 1.998-9.098 1.398-2 3.495-3.099 6.49-3.099 2.896 0 4.993 1 6.192 3 1.298 1.999 1.997 4.998 1.997 9.097 0 3.999-.7 7.098-1.997 9.097-1.398 2-3.496 3-6.491 3v.1zm32.554 4c2.296 0 4.194-.5 5.691-1.4H143.672l-.2-6.299v-35.79h-4.992v16.796a8.678 8.678 0 0 1-3.995 0c-1.497-.9-3.395-1.3-5.692-1.3-7.389 0-11.084 5.399-11.084 15.996 0 5.398.899 9.297 2.696 11.996 1.798 2.6 4.594 3.999 8.388 3.999l4.195-3.999zm1.298-4c-2.497 0-4.294-1-5.493-2.999 9.33 2.277 15.49 11.174 14.344 20.72-1.145 9.545-9.234 16.729-18.837 16.729s-17.692-7.184-18.838-16.73c-1.145-9.545 5.014-18.442 14.344-20.719 0-4.299.5-7.298 1.698-9.297.998-2 2.996-2.9 5.492-2.9 2.796 0 4.793 1 6.091 2.8 1.299 1.8 1.998 4.798 1.998 8.897 0 4.299-.7 7.498-1.998 9.497-1.398 2-3.395 3-6.19 3l7.389-8.998zm39.544-33.49v-5.398h-5.692v5.398h5.692zm10.784 36.69v-4H173.83v-26.692h-14.08v3.999h8.987v22.793h-11.983v4h27.86v-.1zm13.182 0V204.94c0-2.999.798-5.298 2.296-6.997 2.097 0 3.695.6 4.694 1.799.998 1.3 1.497 3.2 1.497 5.798v19.695h5.093V204.74c0-3.6-.799-6.399-2.396-8.098-1.598-1.8-3.995-2.7-7.29-2.7-4.593 0-7.789 2-9.786 5.799-1.73.033-3.462.033-5.193 0h-4.793l.1 5.798v24.893h5.093l10.685-7.598zm41.94 11.996c4.094 0 7.19-1 9.187-3.2 1.997-2.199 2.996-5.398 2.996-9.696v-23.993c0-3 0-4.999.2-5.999h-4.894l-.2 2.5-.1 2.799h-.1c-.898-1.8-1.996-3.2-3.594-4.2-1.598-.999-3.495-1.499-5.592-1.499-3.895 0-6.69 1.3-8.588 3.8-1.797 2.499-2.696 6.497-2.696 11.796 0 5.298.799 9.097 2.596 11.596 1.698 2.4 4.394 3.6 8.189 3.6 1.697-1 2.995-2.4 3.894-4.4v5.5c0 5.997-2.297 8.996-6.99 8.996a6.995 6.995 0 0 1 6.385 7.273 6.994 6.994 0 0 1-6.984 6.698 6.994 6.994 0 0 1-6.984-6.698 6.995 6.995 0 0 1 6.385-7.273c-.999-.8-1.798-1.899-1.997-3.299l-5.293.7c1.997 1.4 4.494 2 7.59 2l6.59 2.999zm-.999-16.096a6.995 6.995 0 0 1 6.385 7.273 6.994 6.994 0 0 1-6.984 6.698 6.994 6.994 0 0 1-6.983-6.698 6.995 6.995 0 0 1 6.384-7.273c-.998-.7-1.797-1.999-2.197-3.598-.5-1.6-.799-3.9-.799-6.699 0-4.298.6-7.297 1.798-8.997 1.098-1.9 2.996-2.8 5.592-2.8 2.396 0 4.394 1 5.792 3.1 1.398 2.1 2.097 4.999 2.097 8.697 0 2.4-.3 4.4-.999 6.199-.6 1.7-1.598 2.999-2.796 3.999a6.995 6.995 0 0 1-6.333-7.293 6.994 6.994 0 0 1 6.982-6.673 6.994 6.994 0 0 1 6.983 6.673 6.995 6.995 0 0 1-6.334 7.293l-8.588.1z" fill="#FFF" fill-rule="nonzero"/><g transform="translate(196.162 287.95)" fill="#032" fill-rule="nonzero"><path d="M59.063 3.784c-1.473.121-2.548.363-3.224.727-.676.363-1.21.994-1.604 1.892-.394.898-.913 2.507-1.56 4.828L44.14 42.807H39.93L29.426 13.29l-9.84 29.517H15.44L5.934 10.354c-.566-1.938-1.085-3.37-1.56-4.3-.474-.928-1.029-1.538-1.665-1.83-.635-.293-1.538-.44-2.709-.44V1h17.77v2.785c-1.392 0-2.411.111-3.057.333-.646.222-.969.818-.969 1.786 0 .646.232 1.746.696 3.3l5.995 20.495L30.062 1h3.965l10.172 28.7 5.147-19.255c.363-1.312.545-2.371.545-3.178 0-1.474-.46-2.412-1.378-2.816-.918-.403-2.094-.625-3.527-.666V1h14.077v2.785zm15.319.636c0 1.21-.429 2.245-1.287 3.103-.858.858-1.892 1.287-3.103 1.287-1.19 0-2.225-.44-3.103-1.317-.878-.878-1.317-1.903-1.317-3.073 0-1.211.434-2.25 1.302-3.118C67.742.434 68.781 0 69.992 0c1.231 0 2.27.424 3.118 1.271.848.848 1.272 1.898 1.272 3.149zm3.42 37.63H61.365v-2.785h.878c1.17 0 2.023-.162 2.558-.485.535-.323.863-.777.984-1.362.121-.585.182-1.443.182-2.573v-8.991c0-1.252-.076-2.14-.227-2.665-.152-.524-.545-.908-1.18-1.15-.637-.242-1.701-.373-3.195-.393V18.86l12.412-2.603v18.588c0 1.695.212 2.856.636 3.481.424.626 1.554.939 3.39.939v2.785zm36.268 0H99.055v-2.785c1.776 0 2.664-.354 2.664-1.06 0-.484-.222-.999-.666-1.544l-5.51-7.265-3.179 2.18v3.783c0 1.211.121 2.094.364 2.65.242.554.585.902 1.029 1.044.444.141 1.14.212 2.089.212v2.785H80.164v-2.785c1.19 0 2.099-.116 2.725-.348.625-.233 1.06-.651 1.301-1.257.243-.605.364-1.544.364-2.815V9.052c0-.99-.137-1.71-.409-2.165-.272-.454-.691-.752-1.256-.893-.565-.141-1.474-.232-2.725-.272V2.937l12.2-2.665v27.882l8.507-5.812c.565-.424.923-.717 1.075-.878a.85.85 0 0 0 .227-.606c0-.545-.474-.817-1.423-.817h-1.695v-2.785h12.836v2.785c-2.1.202-4.39 1.15-6.872 2.846l-3.088 2.18 8.113 10.958c.848 1.09 1.559 1.903 2.134 2.437.575.535 1.206.803 1.892.803v2.785zm15.864-37.63c0 1.21-.43 2.245-1.287 3.103-.858.858-1.892 1.287-3.103 1.287-1.19 0-2.225-.44-3.103-1.317-.878-.878-1.317-1.903-1.317-3.073 0-1.211.434-2.25 1.302-3.118C123.294.434 124.333 0 125.544 0c1.231 0 2.27.424 3.118 1.271.848.848 1.272 1.898 1.272 3.149zm3.42 37.63h-16.438v-2.785h.878c1.17 0 2.023-.162 2.558-.485.535-.323.863-.777.984-1.362.121-.585.182-1.443.182-2.573v-8.991c0-1.252-.076-2.14-.227-2.665-.152-.524-.545-.908-1.181-1.15-.636-.242-1.7-.373-3.194-.393V18.86l12.412-2.603v18.588c0 1.695.212 2.856.636 3.481.424.626 1.554.939 3.39.939v2.785z"/></g></g></svg>